/* XPM */
static char *result[] = {
/* columns rows colors chars-per-pixel */
"64 64 2 1 ",
"  c #B87A57",
". c #DBA88C",
/* pixels */
"                                                 ...............",
"                                                  ..............",
"                                                   .............",
"                                                    ............",
"                                                     ...........",
"                                                      ..........",
"                                                       .........",
"                                                         .......",
"        ..............................                    ......",
"        ...............................                    .....",
"        ................................                    ....",
"        .................................                    ...",
"        ..................................                    ..",
"        ...................................                    .",
"        ....................................                    ",
"        .....................................                   ",
"        ......................................                  ",
"        ........................................                ",
"        .........................................               ",
"        ..........................................              ",
"        ...........................................             ",
"        ............................................            ",
"        .............................................           ",
"        ..............................................          ",
"        ...............................................         ",
"        ................................................        ",
"        ................................................        ",
"        ................................................        ",
"        ................................................        ",
"        ................................................        ",
"        ................................................        ",
"        ................................................        ",
"        ................................................        ",
"        ................................................        ",
"        ................................................        ",
"        ................................................        ",
"        ................................................        ",
"        ................................................        ",
"        ................................................        ",
"        ................................................        ",
"        ................................................        ",
"        ................................................        ",
"        ................................................        ",
"        ................................................        ",
"        ...............................................         ",
"        ..............................................          ",
"        .............................................           ",
"        ............................................            ",
"        ...........................................             ",
"        ..........................................              ",
"        ........................................                ",
"        .......................................                 ",
"        ......................................                  ",
"        .....................................                   ",
"        ....................................                    ",
"        ...................................                    .",
"                                                              ..",
"                                                             ...",
"                                                            ....",
"                                                           .....",
"                                                         .......",
"                                                        ........",
"                                                       .........",
"                                                      .........."
};
