/* XPM */
static char *result[] = {
/* columns rows colors chars-per-pixel */
"64 64 3 1 ",
"  c #DBA88C",
". c #B97A57",
"X c white",
/* pixels */
"                                                                ",
" ............................................                   ",
" .............................................                  ",
" ..............................................                 ",
" ...............................................                ",
" .................................................              ",
" ..................................................             ",
" ...................................................            ",
" ....................................................           ",
" .....................................................          ",
" ......................................................         ",
" ..........                         ....................        ",
" ..........                          ....................       ",
" ..........                           .....................     ",
" ..........                            .....................    ",
" ..........                              ....................   ",
" ..........                               ....................  ",
" ..........                                .................... ",
" ..........                                 ................... ",
" ..........                                  .................. ",
" ..........                                   ................. ",
" ..........                                    ................ ",
" ..........                                     ............... ",
" ..........                                       ............. ",
" ..........                                        ............ ",
" ..........                                         ........... ",
" ..........                                          .......... ",
" ..........                                          .......... ",
" ..........                                          .......... ",
" ..........                                          .......... ",
" ..........                                          .......... ",
" ..........                                          .......... ",
" ..........                                          .......... ",
" ..........                                          .......... ",
" ..........                                          .......... ",
" ..........                                          .......... ",
" ..........                                          .......... ",
" ..........                                          .......... ",
" ..........                                          .......... ",
" ..........                                          .......... ",
" ..........                                          .......... ",
" ..........                                          .......... ",
" ..........                                         ........... ",
" ..........                                        ............ ",
" ..........                                      .............. ",
" ..........                                     ............... ",
" ..........                                    ................ ",
" ..........                                   ................. ",
" ..........                                  .................. ",
" ..........                                 ................... ",
" ..........                               ..................... ",
" ..........                              .....................  ",
" ..........                             .....................   ",
" ...........................................................    ",
" .........................................................      ",
" ........................................................       ",
" .......................................................        ",
" ......................................................         ",
" .....................................................          ",
" ....................................................           ",
" ..................................................             ",
" .................................................              ",
" ................................................               ",
"                                                                "
};
