/* XPM */
static char *result[] = {
/* columns rows colors chars-per-pixel */
"64 64 2 1 ",
"  c #B97B57",
". c #DBA88C",
/* pixels */
"                                                    ............",
"                                                     ...........",
"                                                      ..........",
"                                                       .........",
"                                                        ........",
"                                                          ......",
"                                                           .....",
"       ................................                     ....",
"       .................................                     ...",
"       ...................................                    ..",
"       ....................................                     ",
"       .....................................                    ",
"       ......................................                   ",
"       .......................................                  ",
"       ........................................                 ",
"       ..........................................               ",
"       ...........................................              ",
"       ............................................             ",
"       .............................................            ",
"       ..............................................           ",
"       ................................................         ",
"       .................................................        ",
"       ..................................................       ",
"       ..................................................       ",
"       ..................................................       ",
"       ..................................................       ",
"       ..................................................       ",
"       ..................................................       ",
"       ..................................................       ",
"       ..................................................       ",
"       ..................................................       ",
"       ..................................................       ",
"       ..................................................       ",
"       ..................................................       ",
"       ..................................................       ",
"       ..................................................       ",
"       ..................................................       ",
"       ..................................................       ",
"       ..................................................       ",
"       ..................................................       ",
"       ..................................................       ",
"       ..................................................       ",
"       ..................................................       ",
"       ..................................................       ",
"       .................................................        ",
"       ................................................         ",
"       ...............................................          ",
"       ..............................................           ",
"       .............................................            ",
"       ............................................             ",
"       ...........................................              ",
"       ...........................................              ",
"       ..........................................               ",
"       .........................................                ",
"       ........................................                 ",
"       .......................................                  ",
"       ......................................                  .",
"                                                              ..",
"                                                             ...",
"                                                            ....",
"                                                            ....",
"                                                           .....",
"                                                          ......",
"                                                         ......."
};
